<svg id="Layer_1" data-name="Layer 1" xmlns="http://www.w3.org/2000/svg" viewBox="0 0 288.74 271.57"><defs><style>.cls-1{fill:#00a1bb;}</style></defs><title>australia-map</title><g id="Welcome"><g id="Australia-Copy"><g id="Group-2"><g id="Group"><path id="map" class="cls-1" d="M249.1,249.39c-4.14.95-10.93-3-12.36-2.42-1.66.68,6.72,11.49,4.86,14.73s7.55,10.56,10.56,10.75,1.53-3.38,3.57-3.42,1-2.31,1.15-4,2.53,1.6,4.13.42-1.33-8.17,1.16-8.43-.45-8.76-1.53-11.52-7.39,3-11.54,3.92M173.92,210.2c1.89,1.5,7.58.39,8.27-2.05s-10,.72-8.27,2.05M118.08,15.49c-.52-2-11.34,1.51-8.77,3.29,1.7,1.18,9.3-1.31,8.77-3.29M287.69,130.31c1.14-1.14-1.29-6.31-2.29-5.35s-2-8.27-1.63-12.53-.08-3.72-1.87-1.33-4.64-3.75-5.28-5.38-3.47-6.07-6-5.12-1.35-3.92-3.79-3.16-3.36-3.55-3.32-7.62-1.8-.65-3.06-2.22-2.37-.09-4,.76-2.55-3.29-2.25-5-.7-3.65-3.22-5.25S248.07,75,248,72.81s-14.22-8.16-17.25-8.52-.89-4-2.26-5-2.29-5.35-2.68-9-4.86-4.41-5-7.43-1.86-5.74-1.9-9.12-5-3.72-5.3-5.54-2.82.12-5.42.74-2.87-3.43-3-7.31S203,11.47,200.66,9.86s-3.2-8-4.39-8.86S192,4.85,192.34,7s.19,4.73-1.07,6.21,1.62,6.44-.06,8.48.81,9.23.79,13.47.61,8.74-1,11.79-1.4,7.61-5,9.51-8.88-.76-9-3-4.41-3.09-6.55-2.53-3.74-2.65-7.46-5.15-6,1.31-7.44-1.93-2.58-3.62-5.27-5.21-1.9-1.66.24-3.75,1.43-4.39,0-6.44,1.22-1.82,4.14-4-.42-4,1.8-5.27.6-3.28-1.94-3.52-1.43,2.86-2.33,3.29-2.31-4-3.06-3.74-3.26,4.91-5,2.9S133.46,15.23,130,15.08s-5.05-4.72-7-3.67.56,2.31,3.17,4.75-7.3,5.34-10.36,4.65.71,2.3-1.79,2.39-2.48,4.84-4.26,7.39-.2,4.09-2.22,5.82-2,3.43,1,6.34S107.63,46.23,105,44s-4.93-2-4.47.81S97.92,46.58,98,43.35,94.61,42,93.79,40.23s-4.4-4.45-6.41-4.07-1.75,2.73-3.77,2.94-2.37,1.43-1.81,3.75-3.13.16-5.43.74.33,3.18-.89,3.48-1,2.65-3,2.86-1.2,5-.62,7.52-3.24-.85-5.19,0,.77,2.8,1.69,5.58-.81,2.8-1.77,4.08-3.14-2.89-3.4-5.4-2.66.11-5.12,3.58,1.78,7.95.62,8.92S52.53,81.5,49.7,86s-10.08,2.76-12,5-4.46,1-6.44,3-5.66,6-6.35,3.88-6.12.14-8.17,3.06-5.54,5.66-8.17,6.11-2.17,4.8-3.15,5.92-1.15-3.44-1.27-4.61-2.28,2.27-3,5.91,3.15,4.58,1.21,8.51-3.74,7.84,0,12.19,5.93,7.17,5.1,9.63-3.91-4.33-4.6-3.41,3.36,3.54,2.59,5.15S.54,141.18,0,142.93C-.44,144.5,8.38,155.09,9,159.26s7.08,7.56,7.41,13.63,6.94,15.19,8,16.6-1.6,5.75-.5,10.21-.74,6.35-3.39,6.63-.59,4.81,2.39,4.83,2.13,2.32,5.65,4.32,11.2.34,13.84.06,3-4.72,6.52-5.26,3.12-1.69,4.59-4.21,9.63-2.7,17.92-3.07,11.59-3.42,12.45-7.24c.73-3.26,6.64-4.08,8.73-6.67s4.09-3,10.19-3.27,11.33-4.41,15-6.49,10.94-2.17,14.56-3.57,4.88,4.57,9,3.63,6.21.7,8.37.31,2,1.48,4.27,1.75,2.13,2.32,1,4.64,3.47,1.67,6.89,5.72.68,5,2.59,8.2,2.91,2.23,5.53-2.78,6.35-2.36,6.4-6.43,2.82-9.1,5.21-7.32-1.24,3.18-1.83,11-3.5,4.09-3.74,6.32,6.88,2.67,6.46-1.35.63-6,3.66-2.59-.85,6.87-.05,8.48,3.52-.88,5.1-.87c2.8,0,7.25,6.18,7,9.77s-.83,7,4.75,9.33,3.62,3,7.51,2.6,12.33,2.09,14.72,3.88,7.62-2.32,8.28-6.46,5.11-.7,3.08.87,1.57,4.41,1.49,2.21.67-4.14,1.71-1.7,3.84,2.13,5.14,4,2.7,3.27,2.53,1.6.29-3.25,2.67-4.52,3.75-3.27,6.14-5.9,13.23-4.27,14.32-4.39.65-10.23.73-15.5,4-6.52,4.07-12.12,4.41-16.39,5.76-17a6,6,0,0,0,3.65-5.64c-.18-3.2,3-7.1,2.63-10.95s1.14-8.59.71-9.73-2.07-4.7,0-7.62-1.55-5.77-.42-6.9" transform="translate(-0.01 -0.89)"/></g></g></g></g></svg>