<?xml version="1.0" encoding="utf-8"?>
<!-- Generator: Adobe Illustrator 20.1.0, SVG Export Plug-In . SVG Version: 6.00 Build 0)  -->
<svg version="1.1" id="Layer_1" xmlns="http://www.w3.org/2000/svg" xmlns:xlink="http://www.w3.org/1999/xlink" x="0px" y="0px"
	 viewBox="0 0 6 8" style="enable-background:new 0 0 6 8;" xml:space="preserve">
<style type="text/css">
	.st0{fill:#18788D;fill-opacity:0.738;}
</style>
<path class="st0" d="M0.9,4c0-0.1,0-0.1,0.1-0.2l3.3-3.3c0.1-0.1,0.1-0.1,0.2-0.1c0.1,0,0.1,0,0.2,0.1l0.7,0.7
	c0.1,0.1,0.1,0.1,0.1,0.2c0,0.1,0,0.1-0.1,0.2L3,4l2.4,2.4c0.1,0.1,0.1,0.1,0.1,0.2c0,0.1,0,0.1-0.1,0.2L4.6,7.5
	C4.6,7.6,4.5,7.6,4.4,7.6c-0.1,0-0.1,0-0.2-0.1L0.9,4.2C0.9,4.1,0.9,4.1,0.9,4z"/>
</svg>
