<?xml version="1.0" encoding="utf-8"?>
<!-- Generator: Adobe Illustrator 20.0.0, SVG Export Plug-In . SVG Version: 6.00 Build 0)  -->
<svg version="1.2" baseProfile="tiny" id="Layer_1" xmlns="http://www.w3.org/2000/svg" xmlns:xlink="http://www.w3.org/1999/xlink"
	 x="0px" y="0px" viewBox="0 0 149.3 29" xml:space="preserve">
<g>
	<path fill="#717272" d="M15.6,23.6c0.9,0,1.7-0.1,2.3-0.2c0.7-0.2,1.3-0.4,1.9-0.6v-4.2h-2.7c-0.4,0-0.7-0.1-0.9-0.3
		c-0.2-0.2-0.3-0.5-0.3-0.8V14h9.7v11.6c-0.7,0.5-1.4,1-2.2,1.3c-0.8,0.4-1.6,0.7-2.4,0.9s-1.8,0.4-2.7,0.5c-1,0.1-2,0.2-3.1,0.2
		c-2,0-3.9-0.4-5.6-1.1c-1.7-0.7-3.2-1.7-4.4-2.9c-1.2-1.2-2.2-2.7-2.9-4.4c-0.7-1.7-1.1-3.6-1.1-5.6c0-2,0.3-3.9,1-5.6
		C2.8,7.2,3.7,5.7,5,4.4s2.8-2.2,4.6-2.9s3.8-1,6-1c1.1,0,2.2,0.1,3.2,0.3c1,0.2,1.9,0.4,2.8,0.8c0.8,0.3,1.6,0.7,2.3,1.2
		s1.3,0.9,1.9,1.5L23.9,7c-0.2,0.3-0.4,0.5-0.6,0.6c-0.2,0.2-0.5,0.2-0.8,0.2c-0.4,0-0.8-0.1-1.2-0.4c-0.5-0.3-1-0.6-1.4-0.8
		c-0.4-0.2-0.9-0.4-1.4-0.5c-0.5-0.1-1-0.2-1.5-0.3c-0.5-0.1-1.1-0.1-1.7-0.1c-1.2,0-2.3,0.2-3.2,0.6c-1,0.4-1.8,1-2.4,1.8
		C9,8.9,8.5,9.9,8.1,10.9c-0.4,1.1-0.5,2.3-0.5,3.6c0,1.5,0.2,2.7,0.6,3.9c0.4,1.1,1,2.1,1.7,2.9c0.7,0.8,1.5,1.4,2.5,1.8
		S14.4,23.6,15.6,23.6z"/>
	<path fill="#717272" d="M58,14.5c0,2-0.3,3.8-1,5.5s-1.6,3.2-2.9,4.4c-1.2,1.3-2.7,2.2-4.5,3s-3.7,1.1-5.8,1.1s-4.1-0.4-5.8-1.1
		c-1.8-0.7-3.3-1.7-4.5-3s-2.2-2.7-2.9-4.4s-1-3.5-1-5.5s0.3-3.8,1-5.5c0.7-1.7,1.6-3.2,2.9-4.4s2.7-2.2,4.5-3
		c1.8-0.7,3.7-1.1,5.8-1.1s4.1,0.4,5.8,1.1s3.2,1.7,4.5,3C55.3,5.8,56.3,7.3,57,9S58,12.5,58,14.5z M51.5,14.5
		c0-1.4-0.2-2.6-0.5-3.7c-0.4-1.1-0.9-2-1.5-2.8C48.8,7.3,48,6.8,47,6.4c-1-0.4-2-0.6-3.3-0.6c-1.2,0-2.3,0.2-3.3,0.6
		c-1,0.4-1.8,1-2.4,1.7c-0.7,0.8-1.2,1.7-1.5,2.8c-0.4,1.1-0.5,2.3-0.5,3.7c0,1.4,0.2,2.6,0.5,3.7c0.4,1.1,0.9,2,1.5,2.8
		c0.7,0.8,1.5,1.3,2.4,1.7c1,0.4,2.1,0.6,3.3,0.6c1.2,0,2.3-0.2,3.3-0.6c1-0.4,1.8-1,2.4-1.7c0.7-0.8,1.2-1.7,1.5-2.8
		C51.3,17.1,51.5,15.9,51.5,14.5z"/>
	<path fill="#717272" d="M59.2,0.8h5.1c0.6,0,1,0.1,1.4,0.4c0.4,0.3,0.6,0.6,0.8,1l5.3,14.7c0.2,0.6,0.5,1.3,0.7,2.1
		c0.2,0.8,0.5,1.5,0.7,2.4c0.2-0.8,0.4-1.6,0.6-2.4c0.2-0.8,0.5-1.4,0.7-2.1l5.3-14.7c0.1-0.4,0.4-0.7,0.7-1s0.8-0.4,1.3-0.4h5.2
		l-11,27.4h-5.8L59.2,0.8z"/>
	<path fill="#00A0BA" d="M83.7,25.3c0-0.5,0.1-0.9,0.3-1.3c0.2-0.4,0.4-0.7,0.7-1s0.6-0.5,1-0.7s0.8-0.3,1.3-0.3
		c0.5,0,0.9,0.1,1.3,0.3s0.8,0.4,1.1,0.7s0.5,0.6,0.7,1s0.3,0.8,0.3,1.3s-0.1,0.9-0.3,1.3c-0.2,0.4-0.4,0.7-0.7,1s-0.7,0.5-1.1,0.7
		c-0.4,0.2-0.8,0.2-1.3,0.2c-0.5,0-0.9-0.1-1.3-0.2c-0.4-0.2-0.7-0.4-1-0.7s-0.5-0.6-0.7-1C83.8,26.1,83.7,25.7,83.7,25.3z"/>
	<path fill="#00A0BA" d="M122.2,28.2h-4.9c-0.6,0-1-0.1-1.4-0.4s-0.6-0.6-0.7-1l-1.6-4.8h-10.4l-1.6,4.8c-0.1,0.4-0.4,0.7-0.7,1
		c-0.4,0.3-0.8,0.4-1.3,0.4h-5l10.6-27.4h6.5L122.2,28.2z M104.6,17.7h7.5l-2.5-7.5c-0.2-0.5-0.4-1-0.6-1.7
		c-0.2-0.6-0.4-1.3-0.6-2.1c-0.2,0.8-0.4,1.5-0.6,2.1s-0.4,1.2-0.6,1.7L104.6,17.7z"/>
	<path fill="#00A0BA" d="M136.4,23.2c0.9,0,1.6-0.1,2.3-0.4c0.7-0.3,1.2-0.7,1.7-1.2c0.5-0.5,0.8-1.2,1.1-1.9
		c0.2-0.8,0.4-1.6,0.4-2.6V0.8h6.4V17c0,1.7-0.3,3.2-0.8,4.6c-0.5,1.4-1.3,2.6-2.3,3.6s-2.2,1.8-3.7,2.4c-1.5,0.6-3.1,0.8-4.9,0.8
		c-1.8,0-3.5-0.3-4.9-0.8c-1.5-0.6-2.7-1.4-3.7-2.4c-1-1-1.8-2.2-2.3-3.6s-0.8-2.9-0.8-4.6V0.8h6.4V17c0,1,0.1,1.8,0.4,2.6
		c0.2,0.8,0.6,1.4,1.1,1.9c0.5,0.5,1,0.9,1.7,1.2S135.5,23.2,136.4,23.2z"/>
</g>
</svg>
